<svg width="120" height="120" viewBox="0 0 120 120" fill="none" xmlns="http://www.w3.org/2000/svg">
<path d="M38.8831 90.7168H15.8454C14.3184 90.7185 12.8544 91.3258 11.7747 92.4055C10.6949 93.4853 10.0876 94.9493 10.0859 96.4762V100.316C10.0859 100.825 10.2882 101.313 10.6482 101.673C11.0083 102.033 11.4966 102.236 12.0057 102.236H42.7227C43.2319 102.236 43.7202 102.033 44.0803 101.673C44.4403 101.313 44.6426 100.825 44.6426 100.316V96.4762C44.6409 94.9493 44.0335 93.4853 42.9538 92.4055C41.8741 91.3258 40.4101 90.7185 38.8831 90.7168Z" fill="#FFBA00"/>
<path d="M115.839 97.766L71.9155 53.8428C71.7373 53.6645 71.5258 53.523 71.2929 53.4265C71.06 53.33 70.8103 53.2803 70.5582 53.2803C70.3061 53.2803 70.0565 53.33 69.8236 53.4265C69.5907 53.523 69.3791 53.6645 69.2009 53.8428L63.4415 59.6023C63.2631 59.7805 63.1216 59.9921 63.0251 60.225C62.9286 60.4578 62.8789 60.7075 62.8789 60.9596C62.8789 61.2117 62.9286 61.4613 63.0251 61.6942C63.1216 61.9271 63.2631 62.1387 63.4415 62.3169L107.365 106.24C108.49 107.356 110.012 107.98 111.596 107.976C113.181 107.973 114.699 107.342 115.82 106.221C116.94 105.101 117.572 103.582 117.575 101.998C117.579 100.413 116.954 98.8915 115.839 97.766Z" fill="#2E59F0"/>
<path d="M46.5619 98.3965H8.16569C6.6387 98.3982 5.17474 99.0055 4.095 100.085C3.01526 101.165 2.40793 102.629 2.40625 104.156V106.076C2.40625 106.585 2.60852 107.073 2.96855 107.433C3.32858 107.793 3.8169 107.996 4.32606 107.996H50.4016C50.9107 107.996 51.399 107.793 51.7591 107.433C52.1191 107.073 52.3214 106.585 52.3214 106.076V104.156C52.3197 102.629 51.7124 101.165 50.6326 100.085C49.5529 99.0055 48.0889 98.3982 46.5619 98.3965Z" fill="#2E59F0"/>
<path d="M74.4003 48.6462L70.9581 45.2042C70.7799 45.0258 70.5683 44.8843 70.3354 44.7878C70.1025 44.6913 69.8529 44.6416 69.6008 44.6416C69.3486 44.6416 69.099 44.6913 68.8661 44.7878C68.6332 44.8843 68.4216 45.0258 68.2434 45.2042L54.8048 58.6429C54.6264 58.821 54.4849 59.0326 54.3884 59.2655C54.2919 59.4984 54.2422 59.7481 54.2422 60.0002C54.2422 60.2523 54.2919 60.5019 54.3884 60.7348C54.4849 60.9677 54.6264 61.1793 54.8048 61.3575L58.2468 64.7997C58.9672 65.5189 59.9436 65.9228 60.9616 65.9228C61.9796 65.9228 62.956 65.5189 63.6764 64.7997L74.4003 54.0758C75.1197 53.3555 75.5238 52.3791 75.5238 51.361C75.5238 50.343 75.1197 49.3665 74.4003 48.6462Z" fill="#597EFF"/>
<path d="M78.6425 40.2448L49.8454 69.042C49.4814 69.3988 48.992 69.5987 48.4823 69.5987C47.9726 69.5987 47.4832 69.3988 47.1192 69.042L31.7607 53.6835C31.4011 53.321 31.1992 52.831 31.1992 52.3204C31.1992 51.8098 31.4011 51.3198 31.7607 50.9573L60.5579 22.1601C60.9204 21.8005 61.4103 21.5986 61.921 21.5986C62.4316 21.5986 62.9216 21.8005 63.284 22.1601L78.6425 37.5186C79.0022 37.8811 79.2041 38.3711 79.2041 38.8817C79.2041 39.3924 79.0022 39.8823 78.6425 40.2448Z" fill="#FFBA00"/>
<path d="M78.6414 40.2455L49.8442 69.0427C49.4803 69.3996 48.9909 69.5995 48.4811 69.5995C47.9714 69.5995 47.482 69.3996 47.1181 69.0427L34.5625 56.4872C59.4241 54.337 70.8086 44.5843 75.8769 34.7549L78.6414 37.5194C79.0011 37.8819 79.2029 38.3718 79.2029 38.8825C79.2029 39.3931 79.0011 39.8831 78.6414 40.2455Z" fill="black" fill-opacity="0.1"/>
<path d="M53.6825 72.882L47.923 78.6415C47.5591 78.9983 47.0697 79.1982 46.56 79.1982C46.0503 79.1982 45.5609 78.9983 45.1969 78.6415L22.1592 55.6037C21.7995 55.2412 21.5977 54.7513 21.5977 54.2407C21.5977 53.73 21.7995 53.2401 22.1592 52.8776L27.9186 47.1182C28.2811 46.7585 28.771 46.5566 29.2817 46.5566C29.7923 46.5566 30.2823 46.7585 30.6447 47.1182L39.4759 55.9493L53.6825 70.1559C54.0422 70.5184 54.244 71.0083 54.244 71.519C54.244 72.0296 54.0422 72.5196 53.6825 72.882Z" fill="#597EFF"/>
<path d="M88.2411 38.3254L82.4816 44.0848C82.1177 44.4417 81.6283 44.6416 81.1186 44.6416C80.6089 44.6416 80.1195 44.4417 79.7555 44.0848L56.7178 21.0471C56.3581 20.6846 56.1562 20.1947 56.1562 19.684C56.1562 19.1734 56.3581 18.6834 56.7178 18.321L62.4772 12.5615C62.8397 12.2018 63.3296 12 63.8403 12C64.3509 12 64.8409 12.2018 65.2033 12.5615L78.9108 26.269L88.2411 35.5993C88.6008 35.9617 88.8026 36.4517 88.8026 36.9623C88.8026 37.473 88.6008 37.9629 88.2411 38.3254Z" fill="#597EFF"/>
<path d="M53.683 70.1558C54.0427 70.5183 54.2445 71.0083 54.2445 71.5189C54.2445 72.0295 54.0427 72.5195 53.683 72.882L47.9236 78.6414C47.5596 78.9983 47.0702 79.1982 46.5605 79.1982C46.0508 79.1982 45.5614 78.9983 45.1975 78.6414L23.4844 56.9283C28.8313 56.9732 34.1749 56.646 39.4764 55.9492L53.683 70.1558Z" fill="black" fill-opacity="0.1"/>
<path d="M88.2384 38.325L82.479 44.0844C82.115 44.4413 81.6257 44.6412 81.1159 44.6412C80.6062 44.6412 80.1168 44.4413 79.7529 44.0844L73.8398 38.1714C76.2931 34.5743 78.0152 30.53 78.9081 26.2686L88.2384 35.5988C88.5981 35.9613 88.8 36.4513 88.8 36.9619C88.8 37.4726 88.5981 37.9625 88.2384 38.325Z" fill="black" fill-opacity="0.1"/>
<path fill-rule="evenodd" clip-rule="evenodd" d="M82.0751 44.0848L87.8346 38.3254C88.1943 37.9629 88.3961 37.473 88.3961 36.9623C88.3961 36.4517 88.1943 35.9617 87.8346 35.5993L78.5043 26.269L64.7968 12.5615C64.4343 12.2018 63.9444 12 63.4338 12C62.9231 12 62.4332 12.2018 62.0707 12.5615L56.3113 18.321C55.9516 18.6834 55.7497 19.1734 55.7497 19.684C55.7497 20.1947 55.9516 20.6846 56.3113 21.0471L58.7878 23.5236L32.7168 49.5947L30.2402 47.1181C29.8777 46.7585 29.3878 46.5566 28.8771 46.5566C28.3665 46.5566 27.8765 46.7585 27.5141 47.1181L21.7546 52.8776C21.395 53.24 21.1931 53.73 21.1931 54.2406C21.1931 54.7513 21.395 55.2412 21.7546 55.6037L44.7924 78.6415C45.1563 78.9983 45.6457 79.1982 46.1554 79.1982C46.6652 79.1982 47.1546 78.9983 47.5185 78.6415L53.278 72.882C53.6376 72.5195 53.8395 72.0296 53.8395 71.519C53.8395 71.0083 53.6376 70.5184 53.278 70.1559L50.8014 67.6793L55.7604 62.7204L57.8395 64.7996C58.56 65.5188 59.5364 65.9228 60.5543 65.9228C61.5723 65.9228 62.5487 65.5188 63.2691 64.7996L64.3941 63.6747L106.96 106.241C108.085 107.356 109.607 107.98 111.191 107.977C112.776 107.973 114.295 107.342 115.415 106.222C116.536 105.101 117.167 103.583 117.17 101.998C117.174 100.413 116.549 98.8919 115.434 97.7665L72.8681 55.2007L73.993 54.0758C74.7124 53.3554 75.1165 52.379 75.1165 51.361C75.1165 50.3429 74.7124 49.3665 73.993 48.6462L71.9137 46.567L76.8724 41.6083L79.349 44.0848C79.713 44.4417 80.2023 44.6416 80.7121 44.6416C81.2218 44.6416 81.7112 44.4417 82.0751 44.0848ZM38.4764 90.717H15.4387C13.9117 90.7187 12.4477 91.3261 11.368 92.4058C10.2883 93.4855 9.68093 94.9495 9.67925 96.4765V98.3963H7.75944C6.23245 98.398 4.76849 99.0053 3.68875 100.085C2.60901 101.165 2.00168 102.629 2 104.156V106.076C2 106.585 2.20227 107.073 2.5623 107.433C2.92233 107.793 3.41065 107.995 3.91981 107.995H49.9953C50.5045 107.995 50.9928 107.793 51.3528 107.433C51.7129 107.073 51.9151 106.585 51.9151 106.076V104.156C51.9134 102.629 51.3061 101.165 50.2264 100.085C49.1466 99.0053 47.6827 98.398 46.1557 98.3963H44.2359V96.4765C44.2342 94.9495 43.6269 93.4855 42.5471 92.4058C41.4674 91.3261 40.0034 90.7187 38.4764 90.717Z" fill="url(#paint0_linear_3566_1663)"/>
<defs>
<linearGradient id="paint0_linear_3566_1663" x1="98" y1="-44" x2="45.5" y2="108" gradientUnits="userSpaceOnUse">
<stop stop-color="white" stop-opacity="0.58"/>
<stop offset="1" stop-color="white" stop-opacity="0"/>
</linearGradient>
</defs>
</svg>
