<svg width="120" height="120" viewBox="0 0 120 120" fill="none" xmlns="http://www.w3.org/2000/svg">
<path d="M89.8562 70.2987L63.9471 18.4806C63.8097 18.2057 63.5836 17.9854 63.3053 17.8551C63.0271 17.7249 62.713 17.6925 62.414 17.7631C62.1149 17.8337 61.8485 18.0032 61.6579 18.2441C61.4673 18.485 61.3636 18.7833 61.3637 19.0905V63.286C61.3637 63.5499 61.4404 63.8082 61.5843 64.0294C61.7283 64.2507 61.9333 64.4254 62.1746 64.5323C63.3245 65.0322 64.267 65.9129 64.8436 67.0263C65.4202 68.1397 65.5956 69.4177 65.3403 70.6452C65.085 71.8728 64.4147 72.9749 63.442 73.7661C62.4694 74.5573 61.2538 74.9892 60 74.9892C58.7462 74.9892 57.5307 74.5573 56.558 73.7661C55.5854 72.9749 54.915 71.8728 54.6597 70.6452C54.4045 69.4177 54.5799 68.1397 55.1565 67.0263C55.733 65.9129 56.6756 65.0322 57.8254 64.5323C58.0667 64.4254 58.2718 64.2507 58.4157 64.0294C58.5597 63.8082 58.6363 63.5499 58.6364 63.286V19.0905C58.6365 18.7833 58.5328 18.485 58.3421 18.2441C58.1515 18.0032 57.8851 17.8337 57.5861 17.7631C57.2871 17.6925 56.973 17.7249 56.6947 17.8551C56.4165 17.9854 56.1903 18.2057 56.053 18.4806L30.1439 70.2987C30.0493 70.4881 30 70.697 30 70.9087C30 71.1204 30.0493 71.3293 30.1439 71.5187L42.4166 96.0641C42.5299 96.2906 42.704 96.4811 42.9195 96.6142C43.1349 96.7473 43.3831 96.8178 43.6364 96.8178H76.3637C76.6169 96.8178 76.8652 96.7473 77.0806 96.6142C77.296 96.4811 77.4702 96.2906 77.5834 96.0641L89.8562 71.5187C89.9508 71.3293 90.0001 71.1204 90.0001 70.9087C90.0001 70.697 89.9508 70.4881 89.8562 70.2987Z" fill="#FFBA00"/>
<path d="M75.5131 8.18137H99.5447C99.9064 8.18137 100.253 8.03771 100.509 7.78197C100.765 7.52624 100.908 7.1794 100.908 6.81774C100.908 6.45608 100.765 6.10923 100.509 5.8535C100.253 5.59777 99.9064 5.4541 99.5447 5.4541H64.0902C63.7285 5.4541 63.3817 5.59777 63.126 5.8535C62.8702 6.10923 62.7266 6.45608 62.7266 6.81774C62.7266 6.83574 62.7361 6.85074 62.7368 6.8686L62.7326 6.88306C62.7159 7.06136 62.7346 7.24119 62.7875 7.41228C62.8404 7.58336 62.9265 7.74233 63.0409 7.88011C63.1553 8.01788 63.2958 8.13174 63.4542 8.21519C63.6127 8.29863 63.786 8.35002 63.9643 8.36642C74.4621 9.30514 84.2246 14.1515 91.319 21.9459C98.4134 29.7404 102.322 39.9146 102.272 50.4541C102.272 50.8158 102.416 51.1626 102.671 51.4183C102.927 51.6741 103.274 51.8177 103.636 51.8177C103.997 51.8177 104.344 51.6741 104.6 51.4183C104.856 51.1626 104.999 50.8158 104.999 50.4541C105.041 41.228 102.231 32.2143 96.9522 24.6471C91.6739 17.0799 84.1859 11.3289 75.5131 8.18137Z" fill="#2E59F0"/>
<path d="M55.9095 5.4541H20.455C20.0933 5.4541 19.7465 5.59777 19.4908 5.8535C19.235 6.10923 19.0914 6.45608 19.0914 6.81774C19.0914 7.1794 19.235 7.52624 19.4908 7.78197C19.7465 8.03771 20.0933 8.18137 20.455 8.18137H44.4866C35.8139 11.3289 28.3258 17.0799 23.0475 24.6471C17.7692 32.2143 14.9586 41.228 15.0005 50.4541C15.0005 50.8158 15.1441 51.1626 15.3999 51.4183C15.6556 51.6741 16.0024 51.8177 16.3641 51.8177C16.7258 51.8177 17.0726 51.6741 17.3283 51.4183C17.5841 51.1626 17.7277 50.8158 17.7277 50.4541C17.6773 39.9146 21.5863 29.7404 28.6807 21.9459C35.7751 14.1515 45.5377 9.30514 56.0354 8.36642C56.2137 8.35002 56.3871 8.29863 56.5455 8.21519C56.704 8.13174 56.8444 8.01788 56.9588 7.88011C57.0732 7.74233 57.1594 7.58336 57.2123 7.41228C57.2652 7.24119 57.2838 7.06136 57.2672 6.88306L57.2628 6.86874C57.2635 6.85074 57.2732 6.83574 57.2732 6.81774C57.2732 6.45608 57.1295 6.10923 56.8738 5.8535C56.6181 5.59777 56.2712 5.4541 55.9095 5.4541Z" fill="#2E59F0"/>
<path d="M79.0923 102.272H40.9105C40.1574 102.272 39.5469 102.883 39.5469 103.636V117.272C39.5469 118.026 40.1574 118.636 40.9105 118.636H79.0923C79.8455 118.636 80.456 118.026 80.456 117.272V103.636C80.456 102.883 79.8455 102.272 79.0923 102.272Z" fill="#FFBA00"/>
<path d="M83.1843 94.0908H36.8207C36.0676 94.0908 35.457 94.7013 35.457 95.4545V103.636C35.457 104.389 36.0676 105 36.8207 105H83.1843C83.9374 105 84.5479 104.389 84.5479 103.636V95.4545C84.5479 94.7013 83.9374 94.0908 83.1843 94.0908Z" fill="#FF8E00"/>
<path d="M64.0923 1.36328H55.9105C55.1574 1.36328 54.5469 1.9738 54.5469 2.72692V10.9087C54.5469 11.6619 55.1574 12.2724 55.9105 12.2724H64.0923C64.8454 12.2724 65.456 11.6619 65.456 10.9087V2.72692C65.456 1.9738 64.8454 1.36328 64.0923 1.36328Z" fill="#597EFF"/>
<path d="M20.4556 49.0908H12.2738C11.5207 49.0908 10.9102 49.7013 10.9102 50.4545V58.6363C10.9102 59.3894 11.5207 59.9999 12.2738 59.9999H20.4556C21.2087 59.9999 21.8192 59.3894 21.8192 58.6363V50.4545C21.8192 49.7013 21.2087 49.0908 20.4556 49.0908Z" fill="#597EFF"/>
<path d="M107.729 49.0908H99.5472C98.7941 49.0908 98.1836 49.7013 98.1836 50.4545V58.6363C98.1836 59.3894 98.7941 59.9999 99.5472 59.9999H107.729C108.482 59.9999 109.093 59.3894 109.093 58.6363V50.4545C109.093 49.7013 108.482 49.0908 107.729 49.0908Z" fill="#597EFF"/>
<path d="M103.638 12.2724C106.651 12.2724 109.093 9.83029 109.093 6.81783C109.093 3.80536 106.651 1.36328 103.638 1.36328C100.626 1.36328 98.1836 3.80536 98.1836 6.81783C98.1836 9.83029 100.626 12.2724 103.638 12.2724Z" fill="#597EFF"/>
<path d="M16.3647 12.2724C19.3772 12.2724 21.8192 9.83029 21.8192 6.81783C21.8192 3.80536 19.3772 1.36328 16.3647 1.36328C13.3522 1.36328 10.9102 3.80536 10.9102 6.81783C10.9102 9.83029 13.3522 12.2724 16.3647 12.2724Z" fill="#597EFF"/>
</svg>
