<svg width="120" height="120" viewBox="0 0 120 120" fill="none" xmlns="http://www.w3.org/2000/svg">
<path d="M94.3516 79.8961C94.3516 78.0308 95.7505 76.6318 97.6158 76.6318C99.3257 76.6318 100.88 78.0308 100.88 79.8961V101.036C100.88 102.901 99.4811 104.3 97.6158 104.3C95.7505 104.3 94.3516 102.901 94.3516 101.036V79.8961Z" fill="#FF8E00"/>
<path d="M95.2842 82.0722C94.0407 80.8287 94.0407 78.808 95.2842 77.5645C96.5277 76.321 98.5485 76.321 99.792 77.5645L107.253 85.0256C108.497 86.2691 108.497 88.2899 107.253 89.5334C106.01 90.7769 103.989 90.7769 102.745 89.5334L95.2842 82.0722Z" fill="#FF8E00"/>
<path d="M95.2852 77.5645C96.5287 76.321 98.5495 76.321 99.793 77.5645C101.037 78.808 101.037 80.8287 99.793 82.0722L92.4873 89.5334C91.2438 90.7769 89.223 90.7769 87.9795 89.5334C86.736 88.2899 86.736 86.2691 87.9795 85.0256L95.2852 77.5645Z" fill="#FF8E00"/>
<path fill-rule="evenodd" clip-rule="evenodd" d="M13.8342 7H83.7824C91.399 7 97.6166 13.2176 97.6166 20.8342V66.0673V67.6218C86.0273 67.6219 76.4952 76.4298 75.349 87.7167C75.2725 88.4692 75.2334 89.2326 75.2334 90.0052C75.2334 95.7814 77.4213 101.047 81.0136 105.017C81.4751 105.527 81.9598 106.016 82.466 106.482C82.5227 106.534 82.5796 106.586 82.6368 106.637H13.8342C6.21762 106.637 0 100.42 0 92.8031V92.6476V81.4559V76.3263V20.6788C0 13.2176 6.21762 7 13.8342 7ZM97.6166 76.3264L97.576 76.3266C96.7522 76.3171 95.9254 76.6244 95.2955 77.2486C95.2948 77.2493 95.2941 77.25 95.2935 77.2506C95.2906 77.2534 95.2878 77.2563 95.285 77.2591L95.2833 77.2608L95.2745 77.2696C95.2618 77.2824 95.2493 77.2953 95.2368 77.3083L87.9793 84.7202C86.7358 85.9637 86.7358 87.9845 87.9793 89.228C89.2228 90.4715 91.2435 90.4715 92.4871 89.228L94.3523 87.323V100.731C94.3523 102.596 95.7513 103.995 97.6166 103.995C99.4819 103.995 100.881 102.596 100.881 100.731V87.3627L102.746 89.228C103.99 90.4715 106.01 90.4715 107.254 89.228C108.497 87.9845 108.497 85.9637 107.254 84.7202L100.356 77.8218C99.7574 76.9083 98.7193 76.3264 97.6166 76.3264Z" fill="url(#paint0_linear_3566_1639)"/>
<defs>
<linearGradient id="paint0_linear_3566_1639" x1="113.5" y1="-58.4999" x2="54.0006" y2="137.5" gradientUnits="userSpaceOnUse">
<stop stop-color="white" stop-opacity="0.58"/>
<stop offset="1" stop-color="white" stop-opacity="0"/>
</linearGradient>
</defs>
</svg>
