<svg width="25" height="25" viewBox="0 0 25 25" fill="none" xmlns="http://www.w3.org/2000/svg">
<circle cx="12.5" cy="12.5" r="12.5" fill="#5F7FED"/>
<path d="M12.5159 4.52386V4.53181C12.5239 4.57157 12.5239 4.61928 12.5239 4.667V10.4006C12.5159 10.4324 12.4921 10.4404 12.4682 10.4563C12.3012 10.5358 12.1422 10.6074 11.9752 10.6789C11.7446 10.7823 11.506 10.8936 11.2754 10.997L10.4404 11.3787C10.2098 11.4821 9.97916 11.5855 9.75649 11.6889C9.48611 11.8161 9.20778 11.9354 8.93741 12.0626C8.70679 12.166 8.47617 12.2773 8.23761 12.3807C8.04675 12.4682 7.8559 12.5477 7.67299 12.6352C7.65709 12.6431 7.64118 12.6511 7.62528 12.6511C7.61733 12.6511 7.61733 12.6511 7.60938 12.6431L7.82409 12.2853C8.23761 11.6014 8.64317 10.9254 9.05669 10.2415C9.49407 9.50994 9.93939 8.77833 10.3768 8.04672C10.7823 7.37077 11.1959 6.69483 11.6014 6.01889C11.8957 5.52584 12.1978 5.0328 12.4921 4.53976C12.5 4.52386 12.508 4.5159 12.508 4.5H12.5159C12.508 4.50795 12.5159 4.5159 12.5159 4.52386Z" fill="white"/>
<path d="M17.3986 12.6428L17.4066 12.6507L16.2376 13.3426L12.5636 15.5136C12.5477 15.5215 12.5318 15.5295 12.5239 15.5374C12.5 15.5374 12.5 15.5136 12.5 15.5056V15.434V10.5195C12.5 10.4957 12.5 10.4639 12.508 10.44C12.5159 10.4082 12.5398 10.4162 12.5636 10.4241C12.667 10.4718 12.7783 10.5195 12.8817 10.5672C13.1918 10.7104 13.502 10.8535 13.8121 10.9887C14.0825 11.108 14.3449 11.2352 14.6153 11.3545C14.8857 11.4738 15.1561 11.601 15.4264 11.7203C15.6571 11.8237 15.8956 11.935 16.1262 12.0384C16.3569 12.1418 16.5954 12.2531 16.826 12.3565C17.0089 12.436 17.1918 12.5235 17.3748 12.603C17.3748 12.6269 17.3827 12.6348 17.3986 12.6428Z" fill="#8198EE"/>
<path d="M12.5159 20.4764C12.5159 20.4843 12.508 20.4923 12.508 20.5002H12.5C12.5 20.4843 12.4841 20.4764 12.4762 20.4605C11.9831 19.7686 11.4901 19.0688 10.997 18.377C10.4961 17.6692 9.98711 16.9535 9.48611 16.2458C9.00102 15.5619 8.50798 14.87 8.02289 14.1861C7.89566 14.0032 7.76842 13.8283 7.64118 13.6454C7.63323 13.6295 7.62528 13.6215 7.60938 13.5977C7.63323 13.5977 7.64914 13.6136 7.65709 13.6215C8.34894 14.0271 9.03283 14.4326 9.72468 14.8382C10.5199 15.3074 11.3072 15.7766 12.1024 16.2458L12.508 16.4843C12.5239 16.5002 12.5239 16.5161 12.5239 16.532V20.365C12.5239 20.4048 12.5239 20.4446 12.5159 20.4764Z" fill="white"/>
<path d="M7.60156 12.6586V12.6506C7.85604 12.5393 8.10256 12.42 8.35703 12.3087C8.68307 12.1576 9.00912 12.0144 9.33516 11.8633C9.58168 11.752 9.83615 11.6327 10.0827 11.5214C10.4485 11.3544 10.8063 11.1953 11.1721 11.0283C11.4187 10.917 11.6652 10.8057 11.9197 10.6864C12.0946 10.6069 12.2775 10.5273 12.4525 10.4478C12.4684 10.4399 12.4922 10.4319 12.5002 10.416C12.5081 10.416 12.5081 10.424 12.5002 10.4319V15.4816C12.5002 15.5055 12.4922 15.5293 12.5081 15.5452C12.4922 15.5691 12.4763 15.5452 12.4684 15.5373C12.3968 15.4975 12.3252 15.4578 12.2536 15.41C10.7189 14.5035 9.17611 13.589 7.64132 12.6824C7.63337 12.6745 7.61747 12.6665 7.60156 12.6586Z" fill="#C0CCF7"/>
<path d="M17.3826 13.5977H17.3905C17.3905 13.6136 17.3746 13.6295 17.3667 13.6454C15.9034 15.705 14.4402 17.7726 12.977 19.8322C12.8259 20.047 12.6669 20.2617 12.5158 20.4764C12.5078 20.4684 12.5078 20.4605 12.5078 20.4525V20.4048V16.548V16.4764C12.8418 16.2776 13.1679 16.0867 13.5018 15.8879C14.7901 15.1245 16.0784 14.369 17.3587 13.6056C17.3667 13.6136 17.3746 13.6056 17.3826 13.5977Z" fill="#C0CCF7"/>
<path d="M12.5081 10.4328V10.4169V10.3692V4.59584C12.5081 4.57199 12.5001 4.55608 12.516 4.53223C14.1304 7.21215 15.7447 9.88411 17.351 12.564C17.3669 12.5879 17.3908 12.6197 17.3987 12.6515C17.2874 12.6117 17.184 12.5561 17.0807 12.5084C16.9534 12.4527 16.8182 12.3891 16.691 12.3334C16.6115 12.2937 16.524 12.2618 16.4445 12.2221C16.3093 12.1585 16.1741 12.1028 16.0389 12.0392C15.9594 12.0074 15.8799 11.9676 15.8003 11.9278L15.2755 11.6893C15.188 11.6495 15.1005 11.6098 15.0051 11.57L14.6234 11.403C14.5439 11.3712 14.4644 11.3314 14.3848 11.2917L13.86 11.0531C13.7725 11.0133 13.685 10.9736 13.5896 10.9338L13.2079 10.7668C13.1204 10.7271 13.0409 10.6873 12.9534 10.6475C12.8023 10.576 12.6512 10.5044 12.4922 10.4408C12.516 10.4328 12.5081 10.4328 12.5081 10.4328Z" fill="#C0CCF7"/>
</svg>
