<svg width="167" height="30" viewBox="0 0 167 30" fill="none" xmlns="http://www.w3.org/2000/svg">
<path d="M33.705 8.32847C27.6383 8.32847 22.898 12.9338 22.898 19.0991C22.898 25.2644 27.5185 29.8303 33.705 29.8303C39.8915 29.8303 44.5924 25.1855 44.5924 19.0597C44.5924 12.9733 39.9718 8.32847 33.705 8.32847ZM33.7459 25.3871C30.2911 25.3871 27.7596 22.704 27.7596 19.1006C27.7596 15.4563 30.2502 12.7747 33.705 12.7747C37.2007 12.7747 39.7308 15.4973 39.7308 19.1006C39.7308 22.704 37.2007 25.3871 33.7459 25.3871ZM45.9173 13.0142H48.9309V29.4316H53.7515V8.72868H45.9173V13.0142ZM10.7661 12.7732C13.2977 12.7732 15.3063 14.3346 16.0688 16.6569H21.1714C20.2467 11.6923 16.1491 8.32847 10.807 8.32847C4.74029 8.32847 0 12.9338 0 19.1006C0 25.2674 4.62053 29.8318 10.807 29.8318C16.0294 29.8318 20.2072 26.468 21.1319 21.4624H16.0688C15.3457 23.7848 13.3371 25.3871 10.8055 25.3871C7.30977 25.3871 4.86005 22.704 4.86005 19.1006C4.86156 15.4563 7.27188 12.7732 10.7661 12.7732ZM137.512 17.0981L133.977 16.5781C132.29 16.3386 131.085 15.7777 131.085 14.4558C131.085 13.0142 132.652 12.2941 134.781 12.2941C137.111 12.2941 138.598 13.2946 138.919 14.9364H143.579C143.056 10.7721 139.842 8.32999 134.902 8.32999C129.799 8.32999 126.425 10.9328 126.425 14.6165C126.425 18.1395 128.635 20.183 133.093 20.8227L136.628 21.3427C138.357 21.5822 139.321 22.2643 139.321 23.5453C139.321 25.187 137.634 25.8677 135.304 25.8677C132.451 25.8677 130.844 24.7065 130.603 22.945H125.862C126.305 26.9895 129.478 29.8318 135.263 29.8318C140.526 29.8318 144.02 27.4291 144.02 23.3043C144.02 19.6206 141.49 17.6984 137.512 17.0981ZM51.3412 0.200102C49.5737 0.200102 48.2472 1.48106 48.2472 3.24256C48.2472 5.00406 49.5722 6.28501 51.3412 6.28501C53.1088 6.28501 54.4352 5.00406 54.4352 3.24256C54.4352 1.48106 53.1088 0.200102 51.3412 0.200102ZM122.086 15.8171C122.086 11.333 119.355 8.32999 113.57 8.32999C108.106 8.32999 105.053 11.0935 104.45 15.3381H109.231C109.472 13.6964 110.758 12.3351 113.489 12.3351C115.941 12.3351 117.146 13.4159 117.146 14.7378C117.146 16.4599 114.936 16.8995 112.204 17.1799C108.508 17.5801 103.929 18.8611 103.929 23.6666C103.929 27.3912 106.701 29.7924 111.12 29.7924C114.575 29.7924 116.744 28.3508 117.83 26.0678C117.99 28.1097 119.517 29.4316 121.647 29.4316H124.459V25.1476H122.088V15.8171H122.086ZM117.346 21.0228C117.346 23.7863 114.936 25.8283 112.002 25.8283C110.194 25.8283 108.667 25.0673 108.667 23.4665C108.667 21.4245 111.119 20.8636 113.368 20.6241C115.537 20.424 116.743 19.9435 117.346 19.0218V21.0228ZM91.7557 8.32847C89.0634 8.32847 86.8138 9.45026 85.2069 11.3315V0H80.3863V29.4316H85.1266V26.709C86.7335 28.6706 89.024 29.8318 91.7557 29.8318C97.5405 29.8318 101.92 25.2674 101.92 19.1006C101.92 12.9338 97.4601 8.32847 91.7557 8.32847ZM91.0326 25.3871C87.5778 25.3871 85.0462 22.704 85.0462 19.1006C85.0462 15.4973 87.6172 12.7747 91.072 12.7747C94.5677 12.7747 97.0175 15.4579 97.0175 19.1006C97.0175 22.704 94.4874 25.3871 91.0326 25.3871ZM68.8562 8.32847C65.7228 8.32847 63.6733 9.60943 62.4681 11.4119V8.72868H57.6869V29.4301H62.5075V18.1789C62.5075 15.0152 64.5161 12.7732 67.4888 12.7732C70.2615 12.7732 71.9881 14.7348 71.9881 17.5786V29.4316H76.8087V17.2194C76.8102 12.0122 74.1195 8.32847 68.8562 8.32847ZM167 18.42C167 12.4942 162.661 8.32999 156.836 8.32999C150.649 8.32999 146.109 12.9748 146.109 19.1006C146.109 25.5478 150.971 29.8318 156.916 29.8318C161.938 29.8318 165.875 26.8682 166.879 22.6645H161.856C161.133 24.5064 159.366 25.5478 156.995 25.5478C153.901 25.5478 151.571 23.6256 151.049 20.2618H166.998V18.42H167ZM151.331 16.8176C152.095 13.9344 154.265 12.5336 156.755 12.5336C159.487 12.5336 161.576 14.095 162.058 16.8176H151.331Z" fill="white"/>
</svg>
