<svg width="164" height="43" viewBox="0 0 164 43" fill="none" xmlns="http://www.w3.org/2000/svg">
<path fill-rule="evenodd" clip-rule="evenodd" d="M138.654 6.11618V32.3728C138.629 32.7903 138.801 33.2079 139.096 33.5272C139.391 33.8465 139.808 34.0184 140.226 34.0184H140.692C141.134 34.0184 141.552 33.8465 141.847 33.5272C142.141 33.2079 142.313 32.7903 142.313 32.3728V6.11618H145.359V33.0605C145.359 35.0992 143.738 36.7448 141.699 36.7939H139.366C138.359 36.7939 137.401 36.4255 136.689 35.7132C135.976 35.0009 135.583 34.0676 135.583 33.0605V6.11618H138.654ZM160.317 5.82144C162.356 5.87056 164.002 7.78639 164.002 9.84958V12.2812C164.002 12.6251 163.78 12.9198 163.437 13.0181L160.907 13.7304V10.2426C160.907 9.35834 160.17 8.62149 159.286 8.62149C158.401 8.62149 157.665 9.33378 157.665 10.2426V13.1409C157.665 14.9339 158.991 17.2181 158.991 17.2181L162.626 24.2183C164.1 26.9938 163.977 29.0324 163.977 29.0324V32.9132C163.977 33.9202 163.584 34.9027 162.872 35.6395C162.159 36.3764 161.177 36.7694 160.145 36.7939H158.23C156.166 36.6711 154.545 34.9764 154.545 32.9132V28.5657C154.545 28.2218 154.766 27.9271 155.11 27.8289L157.64 27.1166V32.4219C157.64 33.3061 158.377 34.0184 159.286 34.0184C160.17 34.0184 160.907 33.2816 160.882 32.3728V28.9096C160.882 27.1411 159.556 24.7832 159.556 24.7832L155.97 17.7831C154.496 15.0076 154.619 12.9689 154.619 12.9689V9.84958C154.619 7.73726 156.314 5.82144 158.451 5.82144H160.317ZM102.818 5.82144C104.881 5.91968 106.502 7.63901 106.502 9.70221V33.0114C106.478 35.05 104.857 36.7202 102.818 36.8185H100.485C98.3968 36.7939 96.7021 35.0992 96.6775 33.0114V9.67765C96.6775 8.67061 97.0705 7.68814 97.7828 6.95128C98.4951 6.21443 99.4776 5.82144 100.509 5.79688L102.818 5.82144ZM67.8173 6.11618L67.0805 8.67061C66.9822 9.01448 66.6875 9.23553 66.3436 9.23553H61.4558V19.0112H66.5156L65.7787 21.5656C65.6805 21.8849 65.3857 22.1305 65.0419 22.1305H61.4558V33.4044H67.8173L67.105 35.9343C67.0068 36.2781 66.7121 36.4992 66.3682 36.4992H58.4102V6.11618H67.8173ZM122.124 6.11618C124.236 6.14074 125.906 7.83551 125.906 9.92327V32.6675C125.906 34.7553 124.211 36.4746 122.124 36.4746H116.229V6.11618H122.124ZM81.9895 15.8918L84.7896 6.11618H87.9089L83.5615 21.32L87.9335 36.5237H84.8141L81.9895 26.7236L79.1895 36.4992H76.0701L80.4176 21.32L76.0456 6.11618H79.1649L81.9895 15.8918ZM101.786 34.0676C102.228 34.0676 102.646 33.8711 102.941 33.5518C103.236 33.2325 103.407 32.8149 103.383 32.3728V10.2426C103.407 9.80046 103.236 9.38291 102.941 9.0636C102.646 8.7443 102.228 8.57236 101.786 8.5478H101.32C100.411 8.59693 99.6986 9.33378 99.6986 10.2426V32.3728C99.6986 33.2816 100.411 34.0184 101.32 34.0676H101.786ZM121.264 33.429C122.124 33.429 122.885 32.9868 122.885 31.8079V10.8075C122.885 9.67765 122.124 9.23553 121.264 9.23553H119.274V33.429H121.264Z" fill="white"/>
<path d="M29.9655 21.3934L42.7376 34.1655H38.2182C37.4568 34.1655 36.6954 33.8462 36.155 33.3059L24.2917 21.3934L36.2042 9.45631C36.7445 8.91595 37.4814 8.59665 38.2674 8.62121H42.7376L29.9655 21.3934ZM6.55801 9.45631C6.01765 8.91595 5.2808 8.59665 4.49482 8.62121H0L12.7722 21.3934L0 34.1655H4.51938C5.2808 34.1655 6.04221 33.8462 6.58257 33.3059L18.4705 21.3688L6.55801 9.45631ZM21.3688 24.3162L9.43175 36.2287C8.89139 36.7691 8.59665 37.5059 8.59665 38.2919V42.7867L21.3688 30.0146L34.141 42.7867V38.2674C34.141 37.5059 33.8462 36.7445 33.3059 36.2042L21.3688 24.3162ZM21.3688 18.4705L33.3059 6.55801C33.8462 6.01765 34.141 5.2808 34.141 4.49482V0L21.3688 12.7722L8.59665 0V4.49482C8.59665 5.25624 8.89139 6.01765 9.43175 6.55801L21.3688 18.4705Z" fill="url(#paint0_linear_3559_1605)"/>
<defs>
<linearGradient id="paint0_linear_3559_1605" x1="-0.0142508" y1="21.3888" x2="27.0084" y2="21.3888" gradientUnits="userSpaceOnUse">
<stop stop-color="#00BFFF"/>
<stop offset="1" stop-color="#6619FF"/>
</linearGradient>
</defs>
</svg>
