<svg width="24" height="24" viewBox="0 0 24 24" fill="none" xmlns="http://www.w3.org/2000/svg">
<path d="M19.3477 19.5L15.875 16M17.8594 11C17.8594 11.9193 17.6797 12.8295 17.3307 13.6788C16.9817 14.5281 16.4701 15.2997 15.8251 15.9497C15.1802 16.5998 14.4146 17.1154 13.5719 17.4672C12.7293 17.8189 11.8261 18 10.9141 18C10.002 18 9.09885 17.8189 8.25621 17.4672C7.41356 17.1154 6.64792 16.5998 6.00298 15.9497C5.35805 15.2997 4.84647 14.5281 4.49743 13.6788C4.1484 12.8295 3.96875 11.9193 3.96875 11C3.96875 9.14348 4.70049 7.36301 6.00298 6.05025C7.30548 4.7375 9.07205 4 10.9141 4C12.7561 4 14.5226 4.7375 15.8251 6.05025C17.1276 7.36301 17.8594 9.14348 17.8594 11Z" stroke="#676767" stroke-width="1.5" stroke-linecap="round" stroke-linejoin="round"/>
</svg>
