<svg width="114" height="32" viewBox="0 0 114 32" fill="none" xmlns="http://www.w3.org/2000/svg">
<g clip-path="url(#clip0_3570_1555)">
<path d="M0.262101 20.2042L7.65056 2.16092C8.83442 -0.727423 12.928 -0.727422 14.1119 2.16092C14.4613 3.0096 14.4613 3.95811 14.1119 4.80679L8.69892 18.0361L22.3633 18.0361L19.5035 25.0181L3.58548 25.0181C2.67262 25.0181 1.77402 24.7043 1.11077 24.0838C0.026753 23.0711 -0.27991 21.5307 0.262101 20.2042Z" fill="url(#paint0_linear_3570_1555)"/>
<path d="M22.3633 18.0361L19.5035 25.0181L22.3633 18.0361Z" fill="#B70000"/>
<path d="M11.9566 25.0181L14.8164 18.0361L10.6729 18.0361L7.81306 25.0181L11.9566 25.0181Z" fill="url(#paint1_linear_3570_1555)"/>
<path d="M18.4563 9.14286L11.1106 27.0934C10.7683 27.9349 10.7113 28.8906 11.0393 29.7392C11.5671 31.1299 12.8793 32 14.3056 32L29.0754 32C31.5573 32 33.2475 29.4825 32.3061 27.1861C31.7712 25.8739 30.4946 25.0181 29.0754 25.0181L19.5047 25.0181L24.9176 11.7887C25.2671 10.94 25.2671 9.99153 24.9176 9.14286C23.7338 6.25451 19.6402 6.25451 18.4563 9.14286Z" fill="url(#paint2_linear_3570_1555)"/>
<path d="M16.6448 32L29.0754 32C31.5573 32 33.2475 29.4825 32.3061 27.1861C31.7712 25.8739 30.4946 25.0181 29.0754 25.0181L19.5047 25.0181L24.9176 11.7887L16.6448 32Z" fill="url(#paint3_linear_3570_1555)"/>
</g>
<path d="M41.8383 7.92988V24.1299H53.4783V20.4819H45.8223V7.92988H41.8383ZM64.9569 17.5059C64.9569 19.3539 63.5649 20.7219 61.7169 20.7219C59.8689 20.7219 58.4529 19.3539 58.4529 17.5059V7.92988H54.4929V17.5299C54.4929 19.4739 55.1889 21.1059 56.5569 22.4259C57.9249 23.7459 59.6529 24.3939 61.7169 24.3939C63.7809 24.3939 65.5089 23.7459 66.8769 22.4259C68.2449 21.1059 68.9409 19.4739 68.9409 17.5299V7.92988H64.9569V17.5059ZM79.8568 24.1299L86.5048 7.92988H82.3528L78.2248 18.3939L74.0728 7.92988H69.9208L76.5688 24.1299H79.8568ZM88.0415 24.1299L89.0735 21.5859H95.5055L96.5375 24.1299H100.69L93.9215 7.92988H90.6335L83.8895 24.1299H88.0415ZM92.3135 13.5939L94.0895 18.0579H90.4895L92.3135 13.5939ZM101.745 7.92988V24.1299H113.385V20.4819H105.729V7.92988H101.745Z" fill="white"/>
<defs>
<linearGradient id="paint0_linear_3570_1555" x1="26.9161" y1="23.3225" x2="5.60946" y2="11.6382" gradientUnits="userSpaceOnUse">
<stop stop-color="#0477FF"/>
<stop offset="0.9086" stop-color="#569AFF"/>
</linearGradient>
<linearGradient id="paint1_linear_3570_1555" x1="15.0269" y1="22.7061" x2="10.4651" y2="21.2597" gradientUnits="userSpaceOnUse">
<stop stop-color="#0046A6"/>
<stop offset="1" stop-color="#0046A6" stop-opacity="0"/>
</linearGradient>
<linearGradient id="paint2_linear_3570_1555" x1="32.9017" y1="29.4583" x2="15.2326" y2="17.6314" gradientUnits="userSpaceOnUse">
<stop stop-color="#0459FF"/>
<stop offset="0.9086" stop-color="#569AFF"/>
</linearGradient>
<linearGradient id="paint3_linear_3570_1555" x1="16.6161" y1="20.7451" x2="27.3419" y2="23.704" gradientUnits="userSpaceOnUse">
<stop stop-color="#0046A6"/>
<stop offset="1" stop-color="#0046A6" stop-opacity="0"/>
</linearGradient>
<clipPath id="clip0_3570_1555">
<rect width="32.5705" height="32" fill="white" transform="translate(32.5703 32) rotate(-180)"/>
</clipPath>
</defs>
</svg>
