<svg width="102" height="26" viewBox="0 0 102 26" fill="none" xmlns="http://www.w3.org/2000/svg">
<path d="M10.8629 25.3807C10.8629 25.3807 21.7258 21.6918 21.7258 8.12592V3.24697C21.7258 2.71997 21.3178 2.27798 20.7908 2.24398C18.8188 2.15898 14.1438 1.75098 10.8629 0C7.58192 1.75098 2.90697 2.15898 0.93499 2.24398C0.407996 2.27798 0 2.71997 0 3.24697V8.12592C0 21.6918 10.8629 25.3807 10.8629 25.3807Z" fill="#009FE8"/>
<path d="M15.2509 9.91069C15.1149 8.43171 13.8569 7.92171 12.242 7.76872V5.69474H10.984V7.70072C10.661 7.70072 10.304 7.70072 9.96399 7.70072V5.67773H8.706L8.723 7.73471C8.45101 7.73471 6.20703 7.75171 6.20703 7.75171V9.0607H7.80501V15.6736H6.39403L6.37703 17.1866C6.37703 17.1866 8.36601 17.1696 8.65501 17.1866V19.2606H9.89599V17.2036C10.236 17.2206 10.576 17.2206 10.899 17.2206V19.2606H12.157V17.1866C14.2649 17.0846 15.7269 16.5576 15.9309 14.5856C16.0839 13.0047 15.3529 12.2737 14.1629 11.9847C14.8939 11.6447 15.3529 10.9987 15.2509 9.91069ZM13.466 14.3306C13.449 15.8776 10.814 15.6906 9.98099 15.6906V12.9367C10.814 12.9367 13.483 12.7157 13.466 14.3306ZM12.905 10.4547C12.888 11.8657 10.695 11.6957 9.99799 11.6787V9.1797C10.695 9.1797 12.922 8.9757 12.905 10.4547Z" fill="white"/>
<path d="M43.3003 16.8305C43.3003 17.9185 43.0793 18.8195 42.6543 19.5505C42.2293 20.2815 41.6513 20.8765 40.9543 21.3185C40.2403 21.7605 39.4413 22.0835 38.5403 22.2875C37.6393 22.4745 36.7043 22.5765 35.7694 22.5765H27.8984V2.80566H35.7694C36.5343 2.80566 37.3163 2.89066 38.1153 3.04366C38.9143 3.19666 39.6453 3.46866 40.2913 3.85965C40.9373 4.25065 41.4643 4.76065 41.8893 5.40664C42.2973 6.05263 42.5013 6.88562 42.5013 7.88861C42.5013 8.9936 42.2123 9.89459 41.6003 10.6086C41.0053 11.3226 40.2233 11.8496 39.2543 12.1556V12.2066C39.8153 12.3086 40.3423 12.4786 40.8353 12.7336C41.3283 12.9886 41.7533 13.3116 42.1103 13.7025C42.4673 14.0935 42.7563 14.5525 42.9773 15.0795C43.1813 15.5895 43.3003 16.1675 43.3003 16.8305ZM37.8773 8.5346C37.8773 7.87161 37.6223 7.37862 37.1123 7.07262C36.6023 6.76662 35.8373 6.61362 34.8344 6.61362H32.4884V10.6936H35.0554C35.9563 10.6936 36.6363 10.5066 37.1293 10.1496C37.6393 9.77559 37.8773 9.2316 37.8773 8.5346ZM38.5233 16.3715C38.5233 15.5555 38.2173 14.9775 37.6053 14.6715C36.9933 14.3485 36.1773 14.1955 35.1404 14.1955H32.4884V18.7175H35.1744C35.5484 18.7175 35.9393 18.6835 36.3303 18.6155C36.7213 18.5475 37.0953 18.4285 37.4183 18.2755C37.7413 18.1055 38.0133 17.8675 38.2173 17.5615C38.4213 17.2555 38.5233 16.8645 38.5233 16.3715Z" fill="white"/>
<path d="M49.6422 4.23317C49.6422 4.59016 49.5742 4.91316 49.4382 5.21916C49.3022 5.52516 49.1152 5.79715 48.8772 6.01815C48.6392 6.23915 48.3672 6.40915 48.0442 6.54514C47.7212 6.68114 47.3812 6.73214 47.0242 6.73214C46.2762 6.73214 45.6642 6.49415 45.1542 5.98415C44.6442 5.49116 44.4062 4.89616 44.4062 4.21617C44.4062 3.87618 44.4742 3.55318 44.6102 3.24718C44.7462 2.94118 44.9332 2.66918 45.1712 2.44819C45.4092 2.22719 45.6982 2.04019 46.0042 1.9042C46.3272 1.7682 46.6672 1.7002 47.0412 1.7002C47.3982 1.7002 47.7382 1.7682 48.0612 1.88719C48.3842 2.02319 48.6732 2.19319 48.8942 2.41419C49.1322 2.63519 49.3192 2.90718 49.4552 3.21318C49.5742 3.53617 49.6422 3.87617 49.6422 4.23317ZM44.7292 8.67012H49.3192V22.576H44.7292V8.67012Z" fill="white"/>
<path d="M57.6159 12.0705V17.3915C57.6159 18.0545 57.7349 18.5305 57.9899 18.8705C58.2449 19.1935 58.6869 19.3635 59.3499 19.3635C59.5709 19.3635 59.8089 19.3465 60.0639 19.3125C60.3189 19.2785 60.5229 19.2275 60.6929 19.1425L60.7439 22.4914C60.4209 22.6104 60.0299 22.6954 59.5369 22.7804C59.0439 22.8654 58.5679 22.8994 58.0749 22.8994C57.1399 22.8994 56.3579 22.7804 55.7289 22.5424C55.0999 22.3044 54.5899 21.9814 54.1989 21.5394C53.8249 21.0975 53.5359 20.5875 53.3659 19.9755C53.1959 19.3635 53.1109 18.7005 53.1109 17.9525V12.0705H50.918V8.67059H53.1279V5.01562H57.6329V8.67059H60.8969V12.0705H57.6159V12.0705Z" fill="white"/>
<path d="M77.4708 22.6101C76.1789 22.9331 74.7679 23.0861 73.2379 23.0861C71.6569 23.0861 70.1949 22.8311 68.8689 22.3381C67.5429 21.8281 66.387 21.1311 65.435 20.2131C64.483 19.2951 63.718 18.2072 63.191 16.9322C62.647 15.6572 62.375 14.2292 62.375 12.6652C62.375 11.0842 62.647 9.65625 63.208 8.36426C63.752 7.07227 64.517 5.98428 65.486 5.08329C66.455 4.1823 67.5939 3.48531 68.8859 3.00932C70.1949 2.53332 71.5889 2.27832 73.1019 2.27832C74.6659 2.27832 76.1109 2.51632 77.4538 2.99231C78.7968 3.46831 79.8848 4.0973 80.7178 4.91329L77.7088 8.34726C77.2498 7.80326 76.6208 7.36127 75.8729 7.02127C75.1079 6.68128 74.2409 6.51128 73.2719 6.51128C72.4389 6.51128 71.6569 6.66428 70.9599 6.97027C70.2459 7.27627 69.6339 7.70127 69.1239 8.26226C68.5969 8.80625 68.1889 9.46925 67.9169 10.2172C67.6279 10.9652 67.4749 11.7982 67.4749 12.6822C67.4749 13.6002 67.6109 14.4332 67.8659 15.1982C68.1209 15.9632 68.5119 16.6262 69.0219 17.1702C69.5319 17.7142 70.1609 18.1562 70.9259 18.4622C71.6739 18.7681 72.5409 18.9211 73.5099 18.9211C74.0709 18.9211 74.5979 18.8871 75.1079 18.8021C75.6009 18.7171 76.0769 18.5812 76.5019 18.3942V14.7902H72.7279V10.8972H80.8878V21.3691C79.8848 21.8791 78.7628 22.2871 77.4708 22.6101Z" fill="white"/>
<path d="M98.0714 15.5715C98.0714 16.7105 97.8674 17.7304 97.4594 18.6654C97.0514 19.5834 96.4904 20.3654 95.7764 21.0114C95.0624 21.6574 94.2464 22.1504 93.3115 22.5074C92.3765 22.8644 91.3905 23.0344 90.3195 23.0344C89.2825 23.0344 88.2795 22.8644 87.3445 22.5074C86.4095 22.1504 85.5765 21.6574 84.8795 21.0114C84.1825 20.3654 83.6216 19.5834 83.2136 18.6654C82.8056 17.7474 82.6016 16.7105 82.6016 15.5715C82.6016 14.4325 82.8056 13.4125 83.2136 12.4945C83.6216 11.5765 84.1825 10.8115 84.8795 10.1825C85.5765 9.55353 86.3925 9.06053 87.3445 8.73753C88.2795 8.39754 89.2825 8.22754 90.3195 8.22754C91.3735 8.22754 92.3765 8.39754 93.3115 8.73753C94.2464 9.07753 95.0624 9.55353 95.7764 10.1825C96.4904 10.8115 97.0344 11.5935 97.4594 12.4945C97.8674 13.4125 98.0714 14.4325 98.0714 15.5715ZM93.6684 15.5715C93.6684 15.1295 93.6004 14.6875 93.4474 14.2625C93.2945 13.8375 93.0905 13.4635 92.8015 13.1235C92.5295 12.8005 92.1725 12.5285 91.7645 12.3245C91.3565 12.1205 90.8805 12.0185 90.3365 12.0185C89.7925 12.0185 89.3165 12.1205 88.9085 12.3245C88.5005 12.5285 88.1605 12.8005 87.8885 13.1235C87.6165 13.4465 87.4125 13.8205 87.2765 14.2625C87.1405 14.6875 87.0725 15.1295 87.0725 15.5715C87.0725 16.0135 87.1405 16.4555 87.2765 16.8805C87.4125 17.3054 87.6165 17.6964 87.9055 18.0364C88.1775 18.3764 88.5345 18.6654 88.9425 18.8694C89.3505 19.0734 89.8265 19.1754 90.3705 19.1754C90.9145 19.1754 91.3905 19.0734 91.7985 18.8694C92.2065 18.6654 92.5465 18.3934 92.8355 18.0364C93.1074 17.6964 93.3284 17.3054 93.4644 16.8805C93.6004 16.4555 93.6684 16.0135 93.6684 15.5715Z" fill="white"/>
<path d="M100.4 19.8555C101.267 19.8555 101.998 20.5355 101.998 21.4364C101.998 22.3544 101.25 23.0344 100.4 23.0344C99.5331 23.0344 98.7852 22.3544 98.7852 21.4364C98.7852 20.5185 99.5161 19.8555 100.4 19.8555ZM100.4 20.1105C99.6691 20.1105 99.0912 20.6885 99.0912 21.4364C99.0912 22.2184 99.6691 22.7624 100.4 22.7624C101.131 22.7624 101.692 22.2014 101.692 21.4364C101.692 20.6715 101.114 20.1105 100.4 20.1105ZM100.06 22.3544H99.7712V20.5185H100.468C100.91 20.5185 101.114 20.6885 101.114 21.0455C101.114 21.3685 100.91 21.5215 100.638 21.5555L101.165 22.3544H100.859L100.366 21.5555H100.043V22.3544H100.06ZM100.06 21.3344H100.4C100.74 21.3344 100.859 21.2325 100.859 21.0285C100.859 20.8585 100.774 20.7565 100.451 20.7565H100.077V21.3344H100.06Z" fill="white"/>
</svg>
