<svg width="167" height="43" viewBox="0 0 167 43" fill="none" xmlns="http://www.w3.org/2000/svg">
<path d="M55.8703 16.8676H51.3125V14.1814H63.7241V16.8676H59.1662V28.425H55.8703V16.8676ZM66.8466 18.9226C67.2262 18.3935 67.7352 17.9932 68.3725 17.7218C69.0235 17.4509 69.7695 17.3149 70.6105 17.3149V20.2453C70.2582 20.218 70.0207 20.2044 69.8984 20.2044C68.9897 20.2044 68.2775 20.4621 67.762 20.9777C67.2465 21.4795 66.9887 22.2392 66.9887 23.2566V28.425H63.8147V17.4777H66.8466V18.9226ZM82.3852 17.4777V28.425H79.3735V27.1225C78.953 27.5971 78.4511 27.9635 77.8678 28.2213C77.2846 28.4654 76.6538 28.5877 75.9755 28.5877C74.5376 28.5877 73.3984 28.1738 72.5574 27.3464C71.7164 26.519 71.2958 25.2914 71.2958 23.6635V17.4777H74.4699V23.1954C74.4699 24.9588 75.2093 25.8408 76.6877 25.8408C77.4473 25.8408 78.0578 25.5966 78.5192 25.108C78.9802 24.6061 79.2107 23.8671 79.2107 22.8902V17.4777H82.3852ZM87.788 28.5877C86.8788 28.5877 85.9903 28.4791 85.1224 28.2622C84.2542 28.0313 83.5623 27.7467 83.0467 27.4076L84.105 25.1286C84.5933 25.4405 85.1831 25.6982 85.875 25.9015C86.567 26.0915 87.2452 26.1865 87.9099 26.1865C89.2527 26.1865 89.9244 25.8544 89.9244 25.1893C89.9244 24.8775 89.741 24.6536 89.375 24.5181C89.0086 24.3826 88.4456 24.2669 87.686 24.1719C86.7908 24.0365 86.0514 23.8803 85.4682 23.7044C84.8849 23.528 84.3764 23.2157 83.9423 22.7683C83.5218 22.3206 83.3115 21.6832 83.3115 20.8554C83.3115 20.1639 83.5082 19.5534 83.9014 19.0242C84.3083 18.4814 84.8915 18.0609 85.6512 17.7627C86.4244 17.4645 87.3332 17.3149 88.3779 17.3149C89.1511 17.3149 89.9174 17.4033 90.677 17.5797C91.4503 17.7425 92.0881 17.973 92.59 18.2712L91.5317 20.5299C90.5688 19.9875 89.5175 19.7161 88.3779 19.7161C87.6996 19.7161 87.1911 19.8111 86.852 20.0007C86.5129 20.1907 86.3431 20.4349 86.3431 20.7335C86.3431 21.0727 86.5265 21.3098 86.8924 21.4457C87.2589 21.5811 87.8421 21.71 88.6422 21.8323C89.5378 21.9814 90.2701 22.1442 90.8398 22.3206C91.4098 22.4833 91.9047 22.7886 92.3252 23.2363C92.7457 23.6837 92.9559 24.3078 92.9559 25.108C92.9559 25.7862 92.7527 26.3902 92.3459 26.9189C91.9385 27.448 91.3416 27.8619 90.5552 28.1602C89.7819 28.4452 88.8595 28.5877 87.788 28.5877ZM100.754 27.8958C100.442 28.1263 100.056 28.3027 99.5943 28.425C99.147 28.5332 98.6719 28.5877 98.1701 28.5877C96.8681 28.5877 95.8573 28.2552 95.1385 27.5905C94.433 26.9259 94.0802 25.949 94.0802 24.6606V20.1639H92.3916V17.7218H94.0802V15.0567H97.2543V17.7218H99.981V20.1639H97.2543V24.6197C97.2543 25.0811 97.3699 25.4405 97.6004 25.6983C97.8446 25.9424 98.1837 26.0647 98.6178 26.0647C99.1197 26.0647 99.5468 25.9287 99.8996 25.6573L100.754 27.8958ZM127.608 14.1814L122.949 28.425H119.408L116.275 18.7801L113.04 28.425H109.519L104.84 14.1814H108.258L111.473 24.1926L114.83 14.1814H117.882L121.138 24.274L124.454 14.1814H127.608ZM131.604 17.3149C133.3 17.3149 134.602 17.7218 135.511 18.536C136.42 19.3361 136.874 20.5501 136.874 22.178V28.425H133.904V27.0614C133.307 28.0788 132.195 28.5877 130.567 28.5877C129.726 28.5877 128.993 28.4452 128.369 28.1602C127.759 27.8756 127.291 27.4819 126.965 26.98C126.64 26.4781 126.477 25.9085 126.477 25.2707C126.477 24.2537 126.857 23.4532 127.617 22.8699C128.389 22.2867 129.577 21.9951 131.177 21.9951H133.7C133.7 21.3032 133.49 20.774 133.07 20.408C132.649 20.028 132.018 19.838 131.177 19.838C130.594 19.838 130.017 19.933 129.448 20.123C128.891 20.2994 128.417 20.5435 128.023 20.8554L126.884 18.6376C127.481 18.2171 128.193 17.8916 129.02 17.6611C129.861 17.4302 130.723 17.3149 131.604 17.3149ZM131.36 26.4509C131.903 26.4509 132.385 26.329 132.805 26.0849C133.226 25.8271 133.524 25.4541 133.7 24.9659V23.8464H131.523C130.221 23.8464 129.57 24.274 129.57 25.1286C129.57 25.5355 129.726 25.861 130.038 26.1051C130.363 26.3356 130.804 26.4509 131.36 26.4509ZM138.526 13.3271H141.701V28.425H138.526V13.3271ZM143.426 13.3271H146.6V28.425H143.426V13.3271ZM159.048 22.9918C159.048 23.0327 159.028 23.3177 158.987 23.8464H150.706C150.855 24.5247 151.208 25.0605 151.764 25.4541C152.32 25.8474 153.012 26.044 153.839 26.044C154.409 26.044 154.911 25.9626 155.345 25.7999C155.792 25.6235 156.206 25.3525 156.586 24.9861L158.275 26.8173C157.244 27.9974 155.738 28.5877 153.758 28.5877C152.523 28.5877 151.432 28.3502 150.482 27.8756C149.532 27.3869 148.8 26.7157 148.284 25.861C147.769 25.0064 147.511 24.0365 147.511 22.9513C147.511 21.8798 147.762 20.9165 148.264 20.0619C148.78 19.194 149.478 18.5224 150.36 18.0477C151.255 17.5591 152.252 17.3149 153.351 17.3149C154.423 17.3149 155.393 17.5459 156.26 18.0068C157.129 18.4682 157.807 19.1329 158.295 20.0007C158.797 20.8554 159.048 21.8525 159.048 22.9918ZM153.371 19.7161C152.652 19.7161 152.049 19.9194 151.56 20.3267C151.072 20.7335 150.774 21.2895 150.665 21.9951H156.057C155.948 21.3032 155.65 20.7538 155.162 20.3469C154.673 19.9264 154.076 19.7161 153.371 19.7161ZM167.001 27.8958C166.689 28.1263 166.302 28.3027 165.841 28.425C165.394 28.5332 164.919 28.5877 164.417 28.5877C163.115 28.5877 162.104 28.2552 161.385 27.5905C160.68 26.9259 160.327 25.949 160.327 24.6606V20.1639H158.638V17.7218H160.327V15.0567H163.501V17.7218H166.228V20.1639H163.501V24.6197C163.501 25.0811 163.617 25.4405 163.847 25.6983C164.091 25.9424 164.43 26.0647 164.864 26.0647C165.366 26.0647 165.794 25.9287 166.147 25.6573L167.001 27.8958Z" fill="white"/>
<path d="M28.108 0H14.3168C6.40986 0 0 6.40986 0 14.3168V28.108C0 36.015 6.40986 42.4249 14.3168 42.4249H28.108C36.015 42.4249 42.4249 36.015 42.4249 28.108V14.3168C42.4249 6.40986 36.015 0 28.108 0Z" fill="white"/>
<path d="M0.4375 21.3329C0.4375 9.79377 9.79181 0.439453 21.3309 0.439453C32.8702 0.439453 42.2243 9.79377 42.2243 21.3329C42.2243 32.8722 32.8702 42.2263 21.3309 42.2263C9.79181 42.2263 0.4375 32.8722 0.4375 21.3329Z" fill="white"/>
<path d="M21.344 8.84668C25.5601 12.3681 30.395 12.1508 31.7766 12.1508C31.4744 32.1768 29.1718 28.2057 21.344 33.821C13.5159 28.2057 11.228 32.1768 10.9258 12.1508C12.2928 12.1508 17.1277 12.3681 21.344 8.84668Z" stroke="#3375BB" stroke-width="6.06304" stroke-miterlimit="10" stroke-linecap="round" stroke-linejoin="round"/>
</svg>
