<svg width="187" height="36" viewBox="0 0 187 36" fill="none" xmlns="http://www.w3.org/2000/svg">
<path d="M165.303 18.1339C164.341 17.4782 163.292 17.0411 162.243 16.4729C161.588 16.1232 160.888 15.7736 160.32 15.2928C159.359 14.506 159.533 12.9325 160.582 12.2332C162.025 11.2716 164.429 11.7961 164.691 13.763C164.691 13.8067 164.735 13.8504 164.779 13.8504H166.964C167.008 13.8504 167.051 13.8067 167.051 13.763C166.92 12.408 166.396 11.2716 165.434 10.5285C164.516 9.82916 163.467 9.47949 162.331 9.47949C156.561 9.47949 156.037 15.5987 159.14 17.5219C159.49 17.7405 162.549 19.2703 163.642 19.9696C164.735 20.6253 165.041 21.8491 164.604 22.8107C164.167 23.6849 163.074 24.2968 161.981 24.2094C160.757 24.122 159.839 23.4663 159.49 22.461C159.446 22.2862 159.402 21.9365 159.402 21.7617C159.402 21.718 159.359 21.6743 159.315 21.6743H156.955C156.911 21.6743 156.867 21.718 156.867 21.7617C156.867 23.4663 157.304 24.4279 158.441 25.3021C159.533 26.1326 160.714 26.4823 161.981 26.4823C165.216 26.4823 166.877 24.6465 167.226 22.767C167.488 20.9312 166.964 19.2703 165.303 18.1339Z" fill="white"/>
<path d="M62.2811 9.8291H61.2321H60.0957C60.0519 9.8291 60.0082 9.87281 60.0082 9.87281L58.0413 16.298C57.9976 16.3854 57.9102 16.3854 57.8665 16.298L55.8996 9.87281C55.8996 9.8291 55.8559 9.8291 55.8122 9.8291H54.6757H53.6267H52.228C52.1843 9.8291 52.1406 9.87281 52.1406 9.91652V26.3074C52.1406 26.3511 52.1843 26.3948 52.228 26.3948H54.5883C54.632 26.3948 54.6757 26.3511 54.6757 26.3074V13.8503C54.6757 13.7629 54.8069 13.7192 54.8506 13.8066L56.8175 20.2755L56.9486 20.7126C56.9486 20.7563 56.9923 20.7563 57.036 20.7563H58.8718C58.9155 20.7563 58.9592 20.7126 58.9592 20.7126L59.0903 20.2755L61.0572 13.8066C61.101 13.7192 61.2321 13.7192 61.2321 13.8503V26.3074C61.2321 26.3511 61.2758 26.3948 61.3195 26.3948H63.6798C63.7235 26.3948 63.7672 26.3511 63.7672 26.3074V9.91652C63.7672 9.87281 63.7235 9.8291 63.6798 9.8291H62.2811Z" fill="white"/>
<path d="M128.979 9.8291C128.935 9.8291 128.892 9.87281 128.892 9.87281L126.925 16.298C126.881 16.3854 126.794 16.3854 126.75 16.298L124.783 9.87281C124.783 9.8291 124.739 9.8291 124.696 9.8291H121.068C121.024 9.8291 120.98 9.87281 120.98 9.91652V26.3074C120.98 26.3511 121.024 26.3948 121.068 26.3948H123.428C123.472 26.3948 123.516 26.3511 123.516 26.3074V13.8503C123.516 13.7629 123.647 13.7192 123.69 13.8066L125.657 20.2755L125.788 20.7126C125.788 20.7563 125.832 20.7563 125.876 20.7563H127.712C127.755 20.7563 127.799 20.7126 127.799 20.7126L127.93 20.2755L129.897 13.8066C129.941 13.7192 130.072 13.7192 130.072 13.8503V26.3074C130.072 26.3511 130.116 26.3948 130.159 26.3948H132.52C132.563 26.3948 132.607 26.3511 132.607 26.3074V9.91652C132.607 9.87281 132.563 9.8291 132.52 9.8291H128.979Z" fill="white"/>
<path d="M98.3831 9.8291H93.9685H91.6082H87.1499C87.1062 9.8291 87.0625 9.87281 87.0625 9.91652V11.9708C87.0625 12.0145 87.1062 12.0583 87.1499 12.0583H91.4771V26.3074C91.4771 26.3511 91.5208 26.3948 91.5645 26.3948H93.9248C93.9685 26.3948 94.0122 26.3511 94.0122 26.3074V12.0583H98.3394C98.3831 12.0583 98.4268 12.0145 98.4268 11.9708V9.91652C98.4705 9.87281 98.4268 9.8291 98.3831 9.8291Z" fill="white"/>
<path d="M112.372 26.3945H114.514C114.557 26.3945 114.601 26.3508 114.601 26.2634L110.143 9.82887C110.143 9.78516 110.099 9.78516 110.055 9.78516H109.225H107.782H106.952C106.908 9.78516 106.865 9.82887 106.865 9.82887L102.406 26.2634C102.406 26.3071 102.45 26.3945 102.494 26.3945H104.635C104.679 26.3945 104.723 26.3508 104.723 26.3508L106.034 21.5428C106.034 21.4991 106.078 21.4991 106.122 21.4991H110.886C110.929 21.4991 110.973 21.5428 110.973 21.5428L112.284 26.3508C112.284 26.3508 112.328 26.3945 112.372 26.3945ZM106.69 19.1389L108.438 12.7137C108.482 12.6262 108.569 12.6262 108.613 12.7137L110.361 19.1389C110.361 19.1826 110.318 19.27 110.274 19.27H106.821C106.733 19.27 106.69 19.1826 106.69 19.1389Z" fill="white"/>
<path d="M149.177 26.3945H151.318C151.362 26.3945 151.406 26.3508 151.406 26.2634L146.947 9.82887C146.947 9.78516 146.904 9.78516 146.86 9.78516H146.03H144.587H143.757C143.713 9.78516 143.669 9.82887 143.669 9.82887L139.211 26.2634C139.211 26.3071 139.255 26.3945 139.298 26.3945H141.44C141.484 26.3945 141.528 26.3508 141.528 26.3508L142.839 21.5428C142.839 21.4991 142.882 21.4991 142.926 21.4991H147.69C147.734 21.4991 147.778 21.5428 147.778 21.5428L149.089 26.3508C149.089 26.3508 149.133 26.3945 149.177 26.3945ZM143.494 19.1389L145.243 12.7137C145.286 12.6262 145.374 12.6262 145.418 12.7137L147.166 19.1389C147.166 19.1826 147.122 19.27 147.079 19.27H143.626C143.538 19.27 143.494 19.1826 143.494 19.1389Z" fill="white"/>
<path d="M73.3828 23.9471V18.8768C73.3828 18.8331 73.4265 18.7894 73.4702 18.7894H79.808C79.8517 18.7894 79.8954 18.7457 79.8954 18.702V16.6477C79.8954 16.604 79.8517 16.5603 79.808 16.5603H73.4702C73.4265 16.5603 73.3828 16.5166 73.3828 16.4729V12.1457C73.3828 12.102 73.4265 12.0583 73.4702 12.0583H80.6385C80.6822 12.0583 80.7259 12.0145 80.7259 11.9708V9.91652C80.7259 9.87281 80.6822 9.8291 80.6385 9.8291H73.3828H70.9351C70.8914 9.8291 70.8477 9.87281 70.8477 9.91652V12.0583V16.604V18.8331V24.0782V26.3074C70.8477 26.3511 70.8914 26.3948 70.9351 26.3948H73.3828H80.9444C80.9881 26.3948 81.0318 26.3511 81.0318 26.3074V24.1656C81.0318 24.1219 80.9881 24.0782 80.9444 24.0782H73.4265C73.4265 24.0345 73.3828 23.9908 73.3828 23.9471Z" fill="white"/>
<path d="M186.985 26.2197L178.767 17.7402C178.724 17.6965 178.724 17.6528 178.767 17.609L186.154 9.91628C186.198 9.87258 186.154 9.78516 186.111 9.78516H183.095C183.051 9.78516 183.051 9.78516 183.051 9.82887L176.757 16.3852C176.713 16.4289 176.626 16.3852 176.626 16.3415V9.95999C176.626 9.91628 176.582 9.87257 176.538 9.87257H174.134C174.091 9.87257 174.047 9.91628 174.047 9.95999V26.3508C174.047 26.3945 174.091 26.4383 174.134 26.4383H176.495C176.538 26.4383 176.582 26.3945 176.582 26.3508V19.1389C176.582 19.0514 176.669 19.0077 176.713 19.0952L183.794 26.4383L183.838 26.482H186.854C186.985 26.3945 187.028 26.2634 186.985 26.2197Z" fill="white"/>
<path d="M35.9225 1L21.5859 11.665L24.2522 5.37089L35.9225 1Z" fill="#E17726" stroke="#E17726" stroke-linecap="round" stroke-linejoin="round"/>
<path d="M2.79297 1L17.0421 11.7524L14.507 5.37089L2.79297 1Z" fill="#E27625" stroke="#E27625" stroke-linecap="round" stroke-linejoin="round"/>
<path d="M30.7644 25.6953L26.918 31.5523L35.1352 33.8252L37.4518 25.8264L30.7644 25.6953Z" fill="#E27625" stroke="#E27625" stroke-linecap="round" stroke-linejoin="round"/>
<path d="M1.30469 25.8264L3.62126 33.8252L11.7948 31.5523L7.99215 25.6953L1.30469 25.8264Z" fill="#E27625" stroke="#E27625" stroke-linecap="round" stroke-linejoin="round"/>
<path d="M11.3588 15.817L9.08594 19.27L17.1721 19.6197L16.9098 10.8779L11.3588 15.817Z" fill="#E27625" stroke="#E27625" stroke-linecap="round" stroke-linejoin="round"/>
<path d="M27.3992 15.8175L21.7608 10.791L21.5859 19.6202L29.6721 19.2705L27.3992 15.8175Z" fill="#E27625" stroke="#E27625" stroke-linecap="round" stroke-linejoin="round"/>
<path d="M11.7969 31.553L16.6929 29.1924L12.4526 25.8701L11.7969 31.553Z" fill="#E27625" stroke="#E27625" stroke-linecap="round" stroke-linejoin="round"/>
<path d="M22.0664 29.1924L26.9187 31.553L26.263 25.8701L22.0664 29.1924Z" fill="#E27625" stroke="#E27625" stroke-linecap="round" stroke-linejoin="round"/>
<path d="M26.9187 31.553L22.0664 29.1924L22.4598 32.3398L22.4161 33.695L26.9187 31.553Z" fill="#D5BFB2" stroke="#D5BFB2" stroke-linecap="round" stroke-linejoin="round"/>
<path d="M11.7969 31.553L16.3432 33.695L16.2994 32.3398L16.6929 29.1924L11.7969 31.553Z" fill="#D5BFB2" stroke="#D5BFB2" stroke-linecap="round" stroke-linejoin="round"/>
<path d="M16.4287 23.773L12.3633 22.5927L15.2047 21.2812L16.4287 23.773Z" fill="#233447" stroke="#233447" stroke-linecap="round" stroke-linejoin="round"/>
<path d="M22.332 23.773L23.5123 21.2812L26.3975 22.5927L22.332 23.773Z" fill="#233447" stroke="#233447" stroke-linecap="round" stroke-linejoin="round"/>
<path d="M11.7953 31.553L12.4948 25.6953L7.99219 25.8265L11.7953 31.553Z" fill="#CC6228" stroke="#CC6228" stroke-linecap="round" stroke-linejoin="round"/>
<path d="M26.2617 25.6953L26.9174 31.553L30.7643 25.8265L26.2617 25.6953Z" fill="#CC6228" stroke="#CC6228" stroke-linecap="round" stroke-linejoin="round"/>
<path d="M29.6731 19.2705L21.5859 19.6202L22.3291 23.7731L23.5094 21.2814L26.3945 22.5928L29.6731 19.2705Z" fill="#CC6228" stroke="#CC6228" stroke-linecap="round" stroke-linejoin="round"/>
<path d="M12.3645 22.5928L15.2059 21.2814L16.4299 23.7731L17.1731 19.6202L9.08594 19.2705L12.3645 22.5928Z" fill="#CC6228" stroke="#CC6228" stroke-linecap="round" stroke-linejoin="round"/>
<path d="M9.08594 19.2705L12.4519 25.8714L12.3645 22.5928L9.08594 19.2705Z" fill="#E27525" stroke="#E27525" stroke-linecap="round" stroke-linejoin="round"/>
<path d="M26.3929 22.5928L26.2617 25.8714L29.6714 19.2705L26.3929 22.5928Z" fill="#E27525" stroke="#E27525" stroke-linecap="round" stroke-linejoin="round"/>
<path d="M17.1727 19.6201L16.4297 23.7725L17.3476 28.7116L17.5661 22.1989L17.1727 19.6201Z" fill="#E27525" stroke="#E27525" stroke-linecap="round" stroke-linejoin="round"/>
<path d="M21.5887 19.6201L21.1953 22.1989L21.3701 28.7116L22.3317 23.7725L21.5887 19.6201Z" fill="#E27525" stroke="#E27525" stroke-linecap="round" stroke-linejoin="round"/>
<path d="M22.3289 23.7721L21.3672 28.7118L22.0666 29.1926L26.2632 25.8704L26.3943 22.5918L22.3289 23.7721Z" fill="#F5841F" stroke="#F5841F" stroke-linecap="round" stroke-linejoin="round"/>
<path d="M12.3633 22.5918L12.4507 25.8704L16.691 29.1926L17.3467 28.7118L16.4287 23.7721L12.3633 22.5918Z" fill="#F5841F" stroke="#F5841F" stroke-linecap="round" stroke-linejoin="round"/>
<path d="M22.4181 33.6945L22.4618 32.3395L22.0685 32.0335H16.6486L16.2989 32.3395L16.3426 33.6945L11.7969 31.5527L13.3704 32.864L16.6049 35.0932H22.1122L25.3466 32.864L26.9202 31.5527L22.4181 33.6945Z" fill="#C0AC9D" stroke="#C0AC9D" stroke-linecap="round" stroke-linejoin="round"/>
<path d="M22.0672 29.1928L21.3677 28.7119H17.346L16.6903 29.1928L16.2969 32.3402L16.6466 32.0342H22.0672L22.4606 32.3402L22.0672 29.1928Z" fill="#161616" stroke="#161616" stroke-linecap="round" stroke-linejoin="round"/>
<path d="M36.5341 12.3643L37.7579 6.46361L35.9221 1L22.0664 11.3153L27.3989 15.8173L34.9168 18.0028L36.5778 16.0796L35.8784 15.5551L37.0149 14.5061L36.1407 13.8067L37.2771 12.9325L36.5341 12.3643Z" fill="#763E1A" stroke="#763E1A" stroke-linecap="round" stroke-linejoin="round"/>
<path d="M1 6.46361L2.22385 12.3643L1.43709 12.9325L2.57352 13.8067L1.69934 14.5061L2.87948 15.5551L2.13643 16.0796L3.79737 18.0028L11.359 15.8173L16.6915 11.3153L2.79206 1L1 6.46361Z" fill="#763E1A" stroke="#763E1A" stroke-linecap="round" stroke-linejoin="round"/>
<path d="M34.92 18.0028L27.4021 15.8174L29.6749 19.2704L26.2656 25.8704L30.7676 25.8267H37.4551L34.92 18.0028Z" fill="#F5841F" stroke="#F5841F" stroke-linecap="round" stroke-linejoin="round"/>
<path d="M11.3577 15.8174L3.7961 18.0028L1.30469 25.8267H7.99215L12.4505 25.8704L9.08487 19.2704L11.3577 15.8174Z" fill="#F5841F" stroke="#F5841F" stroke-linecap="round" stroke-linejoin="round"/>
<path d="M21.5887 19.6202L22.0695 11.3155L24.2549 5.37109H14.5078L16.6933 11.3155L17.1741 19.6202L17.3489 22.2427V28.7117H21.3701V22.2427L21.5887 19.6202Z" fill="#F5841F" stroke="#F5841F" stroke-linecap="round" stroke-linejoin="round"/>
</svg>
