<svg width="40" height="40" viewBox="0 0 40 40" fill="none" xmlns="http://www.w3.org/2000/svg">
<g filter="url(#filter0_b_3570_1578)">
<rect width="40" height="40" rx="10" fill="white" fill-opacity="0.3"/>
</g>
<path d="M26.1404 14.4388C25.0255 13.9272 23.8299 13.5503 22.5798 13.3344C22.557 13.3302 22.5343 13.3406 22.5226 13.3615C22.3688 13.635 22.1985 13.9917 22.0792 14.2722C20.7347 14.0709 19.3971 14.0709 18.0801 14.2722C17.9608 13.9855 17.7843 13.635 17.6298 13.3615C17.6181 13.3413 17.5954 13.3309 17.5726 13.3344C16.3232 13.5496 15.1276 13.9265 14.012 14.4388C14.0024 14.4429 13.9941 14.4499 13.9886 14.4589C11.7208 17.8469 11.0996 21.1517 11.4043 24.4154C11.4057 24.4314 11.4147 24.4467 11.4271 24.4564C12.9233 25.5552 14.3726 26.2223 15.7951 26.6644C15.8178 26.6713 15.842 26.663 15.8564 26.6443C16.1929 26.1848 16.4929 25.7003 16.75 25.1908C16.7652 25.1609 16.7507 25.1255 16.7197 25.1137C16.2439 24.9333 15.7909 24.7132 15.3552 24.4633C15.3207 24.4432 15.3179 24.3939 15.3497 24.3703C15.4414 24.3016 15.5331 24.2301 15.6206 24.1579C15.6365 24.1447 15.6586 24.1419 15.6772 24.1503C18.54 25.4573 21.6393 25.4573 24.4683 24.1503C24.487 24.1413 24.509 24.144 24.5256 24.1572C24.6132 24.2294 24.7049 24.3016 24.7972 24.3703C24.829 24.3939 24.8269 24.4432 24.7924 24.4633C24.3566 24.7181 23.9036 24.9333 23.4272 25.113C23.3962 25.1248 23.3824 25.1609 23.3976 25.1908C23.6602 25.6996 23.9602 26.1841 24.2904 26.6436C24.3042 26.663 24.3291 26.6713 24.3518 26.6644C25.7812 26.2223 27.2305 25.5552 28.7267 24.4564C28.7398 24.4467 28.7481 24.4321 28.7495 24.4161C29.1142 20.6428 28.1386 17.3652 26.1631 14.4596C26.1583 14.4499 26.1501 14.4429 26.1404 14.4388ZM17.1775 22.4281C16.3156 22.4281 15.6055 21.6369 15.6055 20.6651C15.6055 19.6933 16.3019 18.902 17.1775 18.902C18.0601 18.902 18.7634 19.7002 18.7496 20.6651C18.7496 21.6369 18.0532 22.4281 17.1775 22.4281ZM22.99 22.4281C22.1282 22.4281 21.418 21.6369 21.418 20.6651C21.418 19.6933 22.1144 18.902 22.99 18.902C23.8726 18.902 24.5759 19.7002 24.5621 20.6651C24.5621 21.6369 23.8726 22.4281 22.99 22.4281Z" fill="white"/>
<defs>
<filter id="filter0_b_3570_1578" x="-8" y="-8" width="56" height="56" filterUnits="userSpaceOnUse" color-interpolation-filters="sRGB">
<feFlood flood-opacity="0" result="BackgroundImageFix"/>
<feGaussianBlur in="BackgroundImageFix" stdDeviation="4"/>
<feComposite in2="SourceAlpha" operator="in" result="effect1_backgroundBlur_3570_1578"/>
<feBlend mode="normal" in="SourceGraphic" in2="effect1_backgroundBlur_3570_1578" result="shape"/>
</filter>
</defs>
</svg>
